<svg width="24" height="25" viewBox="0 0 24 25" fill="none" xmlns="http://www.w3.org/2000/svg">
<g id="ic:round-arrow-back-ios-new">
<path id="Vector" d="M16.8806 3.6964C16.7645 3.58 16.6266 3.48764 16.4747 3.42462C16.3229 3.36161 16.1601 3.32917 15.9956 3.32917C15.8312 3.32917 15.6684 3.36161 15.5166 3.42462C15.3647 3.48764 15.2268 3.58 15.1106 3.6964L6.70065 12.1064C6.60794 12.1989 6.5344 12.3088 6.48421 12.4298C6.43403 12.5508 6.4082 12.6804 6.4082 12.8114C6.4082 12.9424 6.43403 13.0721 6.48421 13.193C6.5344 13.314 6.60794 13.4239 6.70065 13.5164L15.1106 21.9264C15.6006 22.4164 16.3906 22.4164 16.8806 21.9264C17.3706 21.4364 17.3706 20.6464 16.8806 20.1564L9.54065 12.8164L16.8906 5.4664C17.3706 4.9764 17.3706 4.1864 16.8806 3.6964Z" fill="#2A9FFF"/>
</g>
</svg>
