<svg width="92" height="37" viewBox="0 0 92 37" fill="none" xmlns="http://www.w3.org/2000/svg">
<path d="M28.8806 9.51281C28.7645 9.3964 28.6266 9.30405 28.4747 9.24103C28.3229 9.17801 28.1601 9.14558 27.9956 9.14558C27.8312 9.14558 27.6684 9.17801 27.5166 9.24103C27.3647 9.30405 27.2268 9.3964 27.1106 9.51281L18.7006 17.9228C18.6079 18.0153 18.5344 18.1252 18.4842 18.2462C18.434 18.3672 18.4082 18.4968 18.4082 18.6278C18.4082 18.7588 18.434 18.8885 18.4842 19.0094C18.5344 19.1304 18.6079 19.2403 18.7006 19.3328L27.1106 27.7428C27.6006 28.2328 28.3906 28.2328 28.8806 27.7428C29.3706 27.2528 29.3706 26.4628 28.8806 25.9728L21.5406 18.6328L28.8906 11.2828C29.3706 10.7928 29.3706 10.0028 28.8806 9.51281Z" fill="#2A9FFF"/>
<path d="M36.8806 9.51281C36.7645 9.3964 36.6266 9.30405 36.4747 9.24103C36.3229 9.17801 36.1601 9.14558 35.9956 9.14558C35.8312 9.14558 35.6684 9.17801 35.5166 9.24103C35.3647 9.30405 35.2268 9.3964 35.1106 9.51281L26.7006 17.9228C26.6079 18.0153 26.5344 18.1252 26.4842 18.2462C26.434 18.3672 26.4082 18.4968 26.4082 18.6278C26.4082 18.7588 26.434 18.8885 26.4842 19.0094C26.5344 19.1304 26.6079 19.2403 26.7006 19.3328L35.1106 27.7428C35.6006 28.2328 36.3906 28.2328 36.8806 27.7428C37.3706 27.2528 37.3706 26.4628 36.8806 25.9728L29.5406 18.6328L36.8906 11.2828C37.3706 10.7928 37.3706 10.0028 36.8806 9.51281Z" fill="#2A9FFF"/>
<path d="M49.066 23.6328V16.0068H46.12V14.9928H53.08V16.0068H50.134V23.6328H49.066ZM58.6493 23.6328V20.3868C58.6493 20.0788 58.6213 19.7828 58.5653 19.4988C58.5133 19.2148 58.4193 18.9608 58.2833 18.7368C58.1513 18.5088 57.9713 18.3288 57.7433 18.1968C57.5193 18.0648 57.2353 17.9988 56.8913 17.9988C56.6233 17.9988 56.3793 18.0448 56.1593 18.1368C55.9433 18.2248 55.7573 18.3608 55.6013 18.5448C55.4453 18.7288 55.3233 18.9608 55.2353 19.2408C55.1513 19.5168 55.1093 19.8428 55.1093 20.2188L54.4073 20.0028C54.4073 19.3748 54.5193 18.8368 54.7433 18.3888C54.9713 17.9368 55.2893 17.5908 55.6973 17.3508C56.1093 17.1068 56.5933 16.9848 57.1493 16.9848C57.5693 16.9848 57.9273 17.0508 58.2233 17.1828C58.5193 17.3148 58.7653 17.4908 58.9613 17.7108C59.1573 17.9268 59.3113 18.1708 59.4233 18.4428C59.5353 18.7108 59.6133 18.9848 59.6573 19.2648C59.7053 19.5408 59.7293 19.8028 59.7293 20.0508V23.6328H58.6493ZM54.0293 23.6328V14.9928H54.9893V19.7628H55.1093V23.6328H54.0293ZM64.0492 23.8128C63.4052 23.8128 62.8492 23.6668 62.3812 23.3748C61.9172 23.0828 61.5592 22.6788 61.3072 22.1628C61.0552 21.6468 60.9292 21.0548 60.9292 20.3868C60.9292 19.7068 61.0572 19.1108 61.3132 18.5988C61.5692 18.0868 61.9312 17.6888 62.3992 17.4048C62.8672 17.1168 63.4172 16.9728 64.0492 16.9728C64.6972 16.9728 65.2552 17.1188 65.7232 17.4108C66.1912 17.6988 66.5492 18.1008 66.7972 18.6168C67.0492 19.1288 67.1752 19.7188 67.1752 20.3868C67.1752 21.0628 67.0492 21.6588 66.7972 22.1748C66.5452 22.6868 66.1852 23.0888 65.7172 23.3808C65.2492 23.6688 64.6932 23.8128 64.0492 23.8128ZM64.0492 22.7988C64.7212 22.7988 65.2212 22.5748 65.5492 22.1268C65.8772 21.6788 66.0412 21.0988 66.0412 20.3868C66.0412 19.6548 65.8752 19.0728 65.5432 18.6408C65.2112 18.2048 64.7132 17.9868 64.0492 17.9868C63.5972 17.9868 63.2252 18.0888 62.9332 18.2928C62.6412 18.4968 62.4232 18.7788 62.2792 19.1388C62.1352 19.4988 62.0632 19.9148 62.0632 20.3868C62.0632 21.1148 62.2312 21.6988 62.5672 22.1388C62.9032 22.5788 63.3972 22.7988 64.0492 22.7988ZM71.5503 16.1628H70.6803L71.4663 14.1828H72.3363L71.5503 16.1628ZM70.3383 23.8128C69.8543 23.8128 69.4483 23.7248 69.1203 23.5488C68.7963 23.3688 68.5503 23.1328 68.3823 22.8408C68.2183 22.5488 68.1363 22.2288 68.1363 21.8808C68.1363 21.5408 68.2003 21.2468 68.3283 20.9988C68.4603 20.7468 68.6443 20.5388 68.8803 20.3748C69.1163 20.2068 69.3983 20.0748 69.7263 19.9788C70.0343 19.8948 70.3783 19.8228 70.7583 19.7628C71.1423 19.6988 71.5303 19.6408 71.9223 19.5888C72.3143 19.5368 72.6803 19.4868 73.0203 19.4388L72.6363 19.6608C72.6483 19.0848 72.5323 18.6588 72.2883 18.3828C72.0483 18.1068 71.6323 17.9688 71.0403 17.9688C70.6483 17.9688 70.3043 18.0588 70.0083 18.2388C69.7163 18.4148 69.5103 18.7028 69.3903 19.1028L68.3763 18.7968C68.5323 18.2288 68.8343 17.7828 69.2823 17.4588C69.7303 17.1348 70.3203 16.9728 71.0523 16.9728C71.6403 16.9728 72.1443 17.0788 72.5643 17.2908C72.9883 17.4988 73.2923 17.8148 73.4763 18.2388C73.5683 18.4388 73.6263 18.6568 73.6503 18.8928C73.6743 19.1248 73.6862 19.3688 73.6862 19.6248V23.6328H72.7383V22.0788L72.9603 22.2228C72.7163 22.7468 72.3743 23.1428 71.9343 23.4108C71.4983 23.6788 70.9663 23.8128 70.3383 23.8128ZM70.5003 22.9188C70.8843 22.9188 71.2163 22.8508 71.4963 22.7148C71.7803 22.5748 72.0083 22.3928 72.1803 22.1688C72.3523 21.9408 72.4643 21.6928 72.5163 21.4248C72.5763 21.2248 72.6083 21.0028 72.6123 20.7588C72.6203 20.5108 72.6243 20.3208 72.6243 20.1888L72.9963 20.3508C72.6483 20.3988 72.3063 20.4448 71.9703 20.4888C71.6343 20.5328 71.3163 20.5808 71.0163 20.6328C70.7163 20.6808 70.4463 20.7388 70.2063 20.8068C70.0303 20.8628 69.8643 20.9348 69.7083 21.0228C69.5563 21.1108 69.4323 21.2248 69.3363 21.3648C69.2442 21.5008 69.1982 21.6708 69.1982 21.8748C69.1982 22.0508 69.2423 22.2188 69.3303 22.3788C69.4223 22.5388 69.5623 22.6688 69.7503 22.7688C69.9423 22.8688 70.1923 22.9188 70.5003 22.9188ZM78.8643 23.6328C78.4803 23.7088 78.1003 23.7388 77.7243 23.7228C77.3523 23.7108 77.0203 23.6368 76.7283 23.5008C76.4363 23.3608 76.2143 23.1448 76.0623 22.8528C75.9343 22.5968 75.8643 22.3388 75.8523 22.0788C75.8443 21.8148 75.8403 21.5168 75.8403 21.1848V15.3528H76.9083V21.1368C76.9083 21.4008 76.9103 21.6268 76.9143 21.8148C76.9223 22.0028 76.9643 22.1648 77.0403 22.3008C77.1843 22.5568 77.4123 22.7068 77.7243 22.7508C78.0403 22.7948 78.4203 22.7828 78.8643 22.7148V23.6328ZM74.5263 18.0348V17.1528H78.8643V18.0348H74.5263Z" fill="#2A9FFF"/>
</svg>
