<svg width="49" height="48" viewBox="0 0 49 48" fill="none" xmlns="http://www.w3.org/2000/svg">
<g id="icon_account">
<g id="Group">
<g id="Group_2">
<path id="Vector" d="M19.3971 21.1556C16.9301 21.1556 14.9079 20.3737 13.3306 18.7964C11.7533 17.2191 10.9714 15.1969 10.9714 12.7299C10.9714 10.2629 11.7533 8.28113 13.3306 6.69036C14.9079 5.09959 16.9301 4.3042 19.3971 4.3042C21.8642 4.3042 23.8459 5.09959 25.4367 6.69036C27.0274 8.28113 27.8228 10.2898 27.8228 12.7299C27.8228 15.17 27.0274 17.2191 25.4367 18.7964C23.8459 20.3737 21.8372 21.1556 19.3971 21.1556ZM3.50286 38.6811C2.9771 38.6811 2.55918 38.5193 2.23563 38.1688C1.91209 37.8183 1.76379 37.4004 1.76379 36.8746V33.2751C1.76379 32.0079 2.08734 30.8485 2.72095 29.824C3.35457 28.7994 4.2578 28.004 5.41718 27.4378C7.96511 26.2784 10.3917 25.4291 12.697 24.9034C15.0023 24.3776 17.2401 24.1215 19.4106 24.1215H20.7048C20.4756 24.6877 20.2869 25.2404 20.1386 25.7796C19.9903 26.3189 19.8824 26.9525 19.8015 27.667H19.4106C17.2401 27.667 15.1371 27.9097 13.0879 28.395C11.0388 28.8803 8.9762 29.6352 6.88662 30.6463C6.36086 30.9429 5.96991 31.3339 5.70028 31.7922C5.44414 32.2641 5.30933 32.7629 5.30933 33.2751V35.0681H19.9768C20.1251 35.7826 20.3408 36.4297 20.6239 37.0094C20.907 37.5891 21.2575 38.1418 21.6619 38.6676H3.50286V38.6811ZM19.3971 17.6236C20.7857 17.6236 21.9316 17.1517 22.8483 16.2215C23.765 15.2913 24.2234 14.1185 24.2234 12.7434C24.2234 11.3683 23.765 10.2089 22.8483 9.29222C21.9316 8.3755 20.7857 7.91714 19.3971 7.91714C18.0086 7.91714 16.8492 8.3755 15.919 9.29222C14.9888 10.2089 14.5169 11.3548 14.5169 12.7434C14.5169 14.1319 14.9888 15.2913 15.919 16.2215C16.8492 17.1517 18.022 17.6236 19.3971 17.6236Z" fill="#0058A0"/>
<path id="Vector_2" d="M42.315 25.9548V25.6313C42.315 23.663 41.7218 22.1936 40.5085 21.2769C39.2817 20.3602 37.637 19.9153 35.5475 19.9153C35.1026 19.9153 34.6982 19.9422 34.3207 19.9692C33.9163 20.0231 33.5657 20.0501 33.2018 20.0905C32.5142 20.2119 31.8402 20.4141 31.1796 20.6702C29.8719 21.223 28.8473 21.9105 28.0924 22.7598C27.3509 23.6091 26.8791 24.5932 26.6634 25.7122C26.6634 25.7122 26.596 26.0088 26.5421 26.3458C26.5016 26.6828 26.5151 27.1007 26.5151 27.1007C26.5151 28.5702 27.0409 29.6621 28.0789 30.3766C29.117 31.0911 30.5864 31.6978 32.4603 32.1696C33.6197 32.5067 34.4825 32.8167 35.0487 33.0594C35.4531 33.329 35.6688 33.6391 35.6688 34.0031V34.3266C35.4531 35.2029 34.6038 35.6478 33.1343 35.6478C32.4873 35.6478 31.921 35.4725 31.4222 35.149C30.8965 34.7984 30.6403 34.2862 30.6403 33.6121H24.9243C24.8839 33.7334 24.8569 33.9626 24.8569 34.3266C24.8569 35.9174 25.4501 37.2116 26.6095 38.2361C27.9171 39.4225 29.6967 40.0291 31.948 40.0291C34.1994 40.0291 36.3833 39.5034 38.1628 38.4653C39.9693 37.4407 41.0747 35.7826 41.5061 33.4908L41.5735 32.3718C41.5735 31.1451 41.1152 30.1609 40.1985 29.3925C39.2683 28.6511 37.9606 28.0444 36.3024 27.6265L34.3881 27.1142C33.6466 26.885 33.1343 26.6693 32.8243 26.4132C32.5412 26.157 32.3929 25.8874 32.3929 25.5639L32.4198 25.3347C32.5547 24.6606 33.2287 24.3101 34.3881 24.3101C35.8575 24.3101 36.6125 24.8089 36.6125 25.847" fill="#F37021"/>
</g>
</g>
</g>
</svg>
