<svg width="49" height="48" viewBox="0 0 49 48" fill="none" xmlns="http://www.w3.org/2000/svg">
<g id="icon_cccd" clip-path="url(#clip0_211_384)">
<g id="Group">
<path id="Vector" d="M36.7034 14.6014C36.4421 14.3126 36.0984 14.1614 35.6721 14.1614H29.1959C28.7834 14.1614 28.4259 14.3126 28.1371 14.6014C27.8622 14.8764 27.7109 15.2339 27.7109 15.6601C27.7109 16.0864 27.8622 16.4301 28.1371 16.7189C28.4259 17.0076 28.7834 17.1451 29.1959 17.1451H35.6721C36.0571 17.1451 36.3871 17.0076 36.6759 16.7189C36.9646 16.4301 37.1159 16.0726 37.1159 15.6601C37.1159 15.2476 36.9784 14.8764 36.7034 14.6014ZM36.7034 21.0639C36.4421 20.7889 36.0984 20.6376 35.6721 20.6376H29.1959C28.7834 20.6376 28.4259 20.7889 28.1371 21.0639C27.8622 21.3526 27.7109 21.7101 27.7109 22.1226C27.7109 22.5076 27.8622 22.8514 28.1371 23.1264C28.4259 23.4151 28.7834 23.5664 29.1959 23.5664H35.6721C36.0571 23.5664 36.3871 23.4151 36.6759 23.1264C36.9646 22.8514 37.1159 22.4939 37.1159 22.0676C37.1159 21.6826 36.9784 21.3526 36.7034 21.0639ZM21.9221 24.6251C21.5784 24.0614 21.1384 23.6901 20.6159 23.4976C19.5021 23.1264 18.5946 22.8651 17.8934 22.7276C17.1784 22.5901 16.4909 22.5351 15.8034 22.5351C15.0746 22.5351 14.3046 22.6039 13.5071 22.7551C12.6959 22.9064 11.8296 23.1539 10.8671 23.4976C10.3034 23.7314 9.8359 24.1026 9.49215 24.6251C9.1484 25.1339 8.9834 25.7389 8.9834 26.4264V27.2239H22.4446V26.4264C22.4446 25.7801 22.2659 25.1751 21.9221 24.6251ZM18.0309 15.3164C17.4259 14.6976 16.6696 14.3951 15.8034 14.3951C14.9371 14.3951 14.2359 14.6976 13.6171 15.3164C12.9984 15.9351 12.6959 16.6501 12.6959 17.4889C12.6959 18.3689 13.0121 19.1114 13.6171 19.7164C14.2221 20.3214 14.9509 20.6376 15.8034 20.6376C16.6559 20.6376 17.4259 20.3351 18.0309 19.7164C18.6359 19.1114 18.9521 18.3689 18.9521 17.4889C18.9521 16.6089 18.6359 15.9214 18.0309 15.3164ZM21.9221 24.6251C21.5784 24.0614 21.1384 23.6901 20.6159 23.4976C19.5021 23.1264 18.5946 22.8651 17.8934 22.7276C17.1784 22.5901 16.4909 22.5351 15.8034 22.5351C15.0746 22.5351 14.3046 22.6039 13.5071 22.7551C12.6959 22.9064 11.8296 23.1539 10.8671 23.4976C10.3034 23.7314 9.8359 24.1026 9.49215 24.6251C9.1484 25.1339 8.9834 25.7389 8.9834 26.4264V27.2239H22.4446V26.4264C22.4446 25.7801 22.2659 25.1751 21.9221 24.6251ZM18.0309 15.3164C17.4259 14.6976 16.6696 14.3951 15.8034 14.3951C14.9371 14.3951 14.2359 14.6976 13.6171 15.3164C12.9984 15.9351 12.6959 16.6501 12.6959 17.4889C12.6959 18.3689 13.0121 19.1114 13.6171 19.7164C14.2221 20.3214 14.9509 20.6376 15.8034 20.6376C16.6559 20.6376 17.4259 20.3351 18.0309 19.7164C18.6359 19.1114 18.9521 18.3689 18.9521 17.4889C18.9521 16.6089 18.6359 15.9214 18.0309 15.3164ZM18.0309 15.3164C17.4259 14.6976 16.6696 14.3951 15.8034 14.3951C14.9371 14.3951 14.2359 14.6976 13.6171 15.3164C12.9984 15.9351 12.6959 16.6501 12.6959 17.4889C12.6959 18.3689 13.0121 19.1114 13.6171 19.7164C14.2221 20.3214 14.9509 20.6376 15.8034 20.6376C16.6559 20.6376 17.4259 20.3351 18.0309 19.7164C18.6359 19.1114 18.9521 18.3689 18.9521 17.4889C18.9521 16.6089 18.6359 15.9214 18.0309 15.3164ZM21.9221 24.6251C21.5784 24.0614 21.1384 23.6901 20.6159 23.4976C19.5021 23.1264 18.5946 22.8651 17.8934 22.7276C17.1784 22.5901 16.4909 22.5351 15.8034 22.5351C15.0746 22.5351 14.3046 22.6039 13.5071 22.7551C12.6959 22.9064 11.8296 23.1539 10.8671 23.4976C10.3034 23.7314 9.8359 24.1026 9.49215 24.6251C9.1484 25.1339 8.9834 25.7389 8.9834 26.4264V27.2239H22.4446V26.4264C22.4446 25.7801 22.2659 25.1751 21.9221 24.6251ZM36.7034 21.0639C36.4421 20.7889 36.0984 20.6376 35.6721 20.6376H29.1959C28.7834 20.6376 28.4259 20.7889 28.1371 21.0639C27.8622 21.3526 27.7109 21.7101 27.7109 22.1226C27.7109 22.5076 27.8622 22.8514 28.1371 23.1264C28.4259 23.4151 28.7834 23.5664 29.1959 23.5664H35.6721C36.0571 23.5664 36.3871 23.4151 36.6759 23.1264C36.9646 22.8514 37.1159 22.4939 37.1159 22.0676C37.1159 21.6826 36.9784 21.3526 36.7034 21.0639ZM36.7034 14.6014C36.4421 14.3126 36.0984 14.1614 35.6721 14.1614H29.1959C28.7834 14.1614 28.4259 14.3126 28.1371 14.6014C27.8622 14.8764 27.7109 15.2339 27.7109 15.6601C27.7109 16.0864 27.8622 16.4301 28.1371 16.7189C28.4259 17.0076 28.7834 17.1451 29.1959 17.1451H35.6721C36.0571 17.1451 36.3871 17.0076 36.6759 16.7189C36.9646 16.4301 37.1159 16.0726 37.1159 15.6601C37.1159 15.2476 36.9784 14.8764 36.7034 14.6014ZM29.1959 17.1451H35.6721C36.0571 17.1451 36.3871 17.0076 36.6759 16.7189C36.9646 16.4301 37.1159 16.0726 37.1159 15.6601C37.1159 15.2476 36.9784 14.8764 36.7034 14.6014C36.4421 14.3126 36.0984 14.1614 35.6721 14.1614H29.1959C28.7834 14.1614 28.4259 14.3126 28.1371 14.6014C27.8622 14.8764 27.7109 15.2339 27.7109 15.6601C27.7109 16.0864 27.8622 16.4301 28.1371 16.7189C28.4259 17.0076 28.7834 17.1451 29.1959 17.1451ZM35.6721 20.6376H29.1959C28.7834 20.6376 28.4259 20.7889 28.1371 21.0639C27.8622 21.3526 27.7109 21.7101 27.7109 22.1226C27.7109 22.5076 27.8622 22.8514 28.1371 23.1264C28.4259 23.4151 28.7834 23.5664 29.1959 23.5664H35.6721C36.0571 23.5664 36.3871 23.4151 36.6759 23.1264C36.9646 22.8514 37.1159 22.4939 37.1159 22.0676C37.1159 21.6826 36.9784 21.3526 36.7034 21.0639C36.4421 20.7889 36.0984 20.6376 35.6721 20.6376ZM20.6159 23.4976C19.5021 23.1264 18.5946 22.8651 17.8934 22.7276C17.1784 22.5901 16.4909 22.5351 15.8034 22.5351C15.0746 22.5351 14.3046 22.6039 13.5071 22.7551C12.6959 22.9064 11.8296 23.1539 10.8671 23.4976C10.3034 23.7314 9.8359 24.1026 9.49215 24.6251C9.1484 25.1339 8.9834 25.7389 8.9834 26.4264V27.2239H22.4446V26.4264C22.4446 25.7801 22.2659 25.1751 21.9221 24.6251C21.5784 24.0614 21.1384 23.6901 20.6159 23.4976ZM15.8034 20.6376C16.6696 20.6376 17.4259 20.3351 18.0309 19.7164C18.6359 19.1114 18.9521 18.3689 18.9521 17.4889C18.9521 16.6089 18.6359 15.9214 18.0309 15.3164C17.4259 14.6976 16.6696 14.3951 15.8034 14.3951C14.9371 14.3951 14.2359 14.6976 13.6171 15.3164C12.9984 15.9351 12.6959 16.6501 12.6959 17.4889C12.6959 18.3689 13.0121 19.1114 13.6171 19.7164C14.2221 20.3214 14.9509 20.6376 15.8034 20.6376ZM18.0309 15.3164C17.4259 14.6976 16.6696 14.3951 15.8034 14.3951C14.9371 14.3951 14.2359 14.6976 13.6171 15.3164C12.9984 15.9351 12.6959 16.6501 12.6959 17.4889C12.6959 18.3689 13.0121 19.1114 13.6171 19.7164C14.2221 20.3214 14.9509 20.6376 15.8034 20.6376C16.6559 20.6376 17.4259 20.3351 18.0309 19.7164C18.6359 19.1114 18.9521 18.3689 18.9521 17.4889C18.9521 16.6089 18.6359 15.9214 18.0309 15.3164ZM21.9221 24.6251C21.5784 24.0614 21.1384 23.6901 20.6159 23.4976C19.5021 23.1264 18.5946 22.8651 17.8934 22.7276C17.1784 22.5901 16.4909 22.5351 15.8034 22.5351C15.0746 22.5351 14.3046 22.6039 13.5071 22.7551C12.6959 22.9064 11.8296 23.1539 10.8671 23.4976C10.3034 23.7314 9.8359 24.1026 9.49215 24.6251C9.1484 25.1339 8.9834 25.7389 8.9834 26.4264V27.2239H22.4446V26.4264C22.4446 25.7801 22.2659 25.1751 21.9221 24.6251ZM36.7034 21.0639C36.4421 20.7889 36.0984 20.6376 35.6721 20.6376H29.1959C28.7834 20.6376 28.4259 20.7889 28.1371 21.0639C27.8622 21.3526 27.7109 21.7101 27.7109 22.1226C27.7109 22.5076 27.8622 22.8514 28.1371 23.1264C28.4259 23.4151 28.7834 23.5664 29.1959 23.5664H35.6721C36.0571 23.5664 36.3871 23.4151 36.6759 23.1264C36.9646 22.8514 37.1159 22.4939 37.1159 22.0676C37.1159 21.6826 36.9784 21.3526 36.7034 21.0639ZM36.7034 14.6014C36.4421 14.3126 36.0984 14.1614 35.6721 14.1614H29.1959C28.7834 14.1614 28.4259 14.3126 28.1371 14.6014C27.8622 14.8764 27.7109 15.2339 27.7109 15.6601C27.7109 16.0864 27.8622 16.4301 28.1371 16.7189C28.4259 17.0076 28.7834 17.1451 29.1959 17.1451H35.6721C36.0571 17.1451 36.3871 17.0076 36.6759 16.7189C36.9646 16.4301 37.1159 16.0726 37.1159 15.6601C37.1159 15.2476 36.9784 14.8764 36.7034 14.6014ZM36.7034 14.6014C36.4421 14.3126 36.0984 14.1614 35.6721 14.1614H29.1959C28.7834 14.1614 28.4259 14.3126 28.1371 14.6014C27.8622 14.8764 27.7109 15.2339 27.7109 15.6601C27.7109 16.0864 27.8622 16.4301 28.1371 16.7189C28.4259 17.0076 28.7834 17.1451 29.1959 17.1451H35.6721C36.0571 17.1451 36.3871 17.0076 36.6759 16.7189C36.9646 16.4301 37.1159 16.0726 37.1159 15.6601C37.1159 15.2476 36.9784 14.8764 36.7034 14.6014ZM36.7034 21.0639C36.4421 20.7889 36.0984 20.6376 35.6721 20.6376H29.1959C28.7834 20.6376 28.4259 20.7889 28.1371 21.0639C27.8622 21.3526 27.7109 21.7101 27.7109 22.1226C27.7109 22.5076 27.8622 22.8514 28.1371 23.1264C28.4259 23.4151 28.7834 23.5664 29.1959 23.5664H35.6721C36.0571 23.5664 36.3871 23.4151 36.6759 23.1264C36.9646 22.8514 37.1159 22.4939 37.1159 22.0676C37.1159 21.6826 36.9784 21.3526 36.7034 21.0639ZM21.9221 24.6251C21.5784 24.0614 21.1384 23.6901 20.6159 23.4976C19.5021 23.1264 18.5946 22.8651 17.8934 22.7276C17.1784 22.5901 16.4909 22.5351 15.8034 22.5351C15.0746 22.5351 14.3046 22.6039 13.5071 22.7551C12.6959 22.9064 11.8296 23.1539 10.8671 23.4976C10.3034 23.7314 9.8359 24.1026 9.49215 24.6251C9.1484 25.1339 8.9834 25.7389 8.9834 26.4264V27.2239H22.4446V26.4264C22.4446 25.7801 22.2659 25.1751 21.9221 24.6251ZM18.0309 15.3164C17.4259 14.6976 16.6696 14.3951 15.8034 14.3951C14.9371 14.3951 14.2359 14.6976 13.6171 15.3164C12.9984 15.9351 12.6959 16.6501 12.6959 17.4889C12.6959 18.3689 13.0121 19.1114 13.6171 19.7164C14.2221 20.3214 14.9509 20.6376 15.8034 20.6376C16.6559 20.6376 17.4259 20.3351 18.0309 19.7164C18.6359 19.1114 18.9521 18.3689 18.9521 17.4889C18.9521 16.6089 18.6359 15.9214 18.0309 15.3164ZM36.7034 21.0639C36.4421 20.7889 36.0984 20.6376 35.6721 20.6376H29.1959C28.7834 20.6376 28.4259 20.7889 28.1371 21.0639C27.8622 21.3526 27.7109 21.7101 27.7109 22.1226C27.7109 22.5076 27.8622 22.8514 28.1371 23.1264C28.4259 23.4151 28.7834 23.5664 29.1959 23.5664H35.6721C36.0571 23.5664 36.3871 23.4151 36.6759 23.1264C36.9646 22.8514 37.1159 22.4939 37.1159 22.0676C37.1159 21.6826 36.9784 21.3526 36.7034 21.0639ZM36.7034 14.6014C36.4421 14.3126 36.0984 14.1614 35.6721 14.1614H29.1959C28.7834 14.1614 28.4259 14.3126 28.1371 14.6014C27.8622 14.8764 27.7109 15.2339 27.7109 15.6601C27.7109 16.0864 27.8622 16.4301 28.1371 16.7189C28.4259 17.0076 28.7834 17.1451 29.1959 17.1451H35.6721C36.0571 17.1451 36.3871 17.0076 36.6759 16.7189C36.9646 16.4301 37.1159 16.0726 37.1159 15.6601C37.1159 15.2476 36.9784 14.8764 36.7034 14.6014Z" fill="#0058A0"/>
<path id="Vector_2" d="M45.3659 6.43388V20.7339C44.4722 20.0739 43.4134 19.6889 42.2034 19.6751C42.0522 19.6751 41.9009 19.7026 41.7497 19.7164V6.43388H3.93717V32.9026H24.5622L22.4447 36.5051H3.93717C2.94717 36.5051 2.09467 36.1614 1.39342 35.4464C0.678423 34.7451 0.320923 33.8926 0.320923 32.9026V6.43388C0.320923 5.44388 0.678423 4.59138 1.39342 3.87638C2.09467 3.17513 2.94717 2.81763 3.93717 2.81763H41.7497C42.7397 2.81763 43.5922 3.17513 44.2934 3.87638C45.0084 4.59138 45.3659 5.44388 45.3659 6.43388Z" fill="#0058A0"/>
<path id="Vector_3" d="M41.2822 34.4425C41.0072 34.195 40.8834 33.8788 40.8972 33.4938C40.8972 33.1225 41.0484 32.7788 41.3097 32.49L43.2209 30.5788H28.3159C27.9447 30.5788 27.6147 30.455 27.3534 30.1938C27.0922 29.9325 26.9684 29.6025 26.9684 29.2038C26.9684 28.8463 27.0922 28.53 27.3534 28.255C27.6147 27.98 27.9309 27.8563 28.3159 27.8563H43.2209L41.2547 25.89C40.9797 25.6013 40.8559 25.285 40.8559 24.9138C40.8559 24.5425 40.9934 24.2263 41.2822 23.9375C41.5572 23.6625 41.8734 23.5388 42.2447 23.5525C42.6159 23.5525 42.9459 23.7038 43.2347 23.965L47.4972 28.255C47.6347 28.3925 47.7447 28.5575 47.8272 28.7088C47.8959 28.8738 47.9372 29.0388 47.9372 29.19C47.9372 29.3688 47.8959 29.5475 47.8272 29.7125C47.7584 29.8775 47.6484 30.0288 47.4972 30.1525L43.2072 34.4425C42.9597 34.7175 42.6434 34.8413 42.2722 34.8413C41.9009 34.8413 41.5709 34.7038 41.2822 34.415V34.4425ZM30.9834 44.7138L26.7209 40.4513C26.5834 40.3275 26.4734 40.1763 26.4047 40.025C26.3359 39.8738 26.3084 39.695 26.3084 39.5163C26.3084 39.3375 26.3359 39.1725 26.4047 39.0075C26.4734 38.8425 26.5697 38.705 26.7209 38.5813L31.0384 34.2638C31.3134 33.9888 31.6297 33.865 32.0009 33.865C32.3722 33.865 32.6884 34.0025 32.9634 34.2913C33.2384 34.5663 33.3622 34.8825 33.3347 35.2675C33.3209 35.6388 33.1834 35.955 32.9359 36.2163L30.9972 38.155H45.9022C46.2734 38.155 46.6034 38.2925 46.8647 38.5538C47.1259 38.8288 47.2497 39.145 47.2497 39.53C47.2497 39.915 47.1259 40.2313 46.8647 40.5063C46.6034 40.7813 46.2872 40.905 45.9022 40.905H30.9972L32.9634 42.8438C33.2384 43.1325 33.3622 43.4488 33.3484 43.82C33.3484 44.1775 33.1972 44.4938 32.9084 44.7688C32.6334 45.0575 32.3172 45.195 31.9322 45.1813C31.5609 45.1813 31.2447 45.03 30.9834 44.7413V44.7138Z" fill="#F37021"/>
</g>
</g>
<defs>
<clipPath id="clip0_211_384">
<rect width="48" height="48" fill="white" transform="translate(0.129028)"/>
</clipPath>
</defs>
</svg>
